<svg xmlns="http://www.w3.org/2000/svg" xmlns:xlink="http://www.w3.org/1999/xlink" fill="none" version="1.1" width="16" height="20" viewBox="0 0 16 20"><g style="mix-blend-mode:passthrough"><path d="M5.70711,11.2929C5.31658,10.9024,4.68342,10.9024,4.29289,11.2929C3.90237,11.6834,3.90237,12.3166,4.29289,12.7071C4.29289,12.7071,5.70711,11.2929,5.70711,11.2929C5.70711,11.2929,5.70711,11.2929,5.70711,11.2929ZM7,14C7,14,6.29289,14.7071,6.29289,14.7071C6.68342,15.0976,7.31658,15.0976,7.70711,14.7071C7.70711,14.7071,7,14,7,14C7,14,7,14,7,14ZM11.7071,10.7071C12.0976,10.3166,12.0976,9.68342,11.7071,9.29289C11.3166,8.90237,10.6834,8.90237,10.2929,9.29289C10.2929,9.29289,11.7071,10.7071,11.7071,10.7071C11.7071,10.7071,11.7071,10.7071,11.7071,10.7071ZM14,5C14,5,14,17,14,17C14,17,16,17,16,17C16,17,16,5,16,5C16,5,14,5,14,5C14,5,14,5,14,5ZM13,18C13,18,3,18,3,18C3,18,3,20,3,20C3,20,13,20,13,20C13,20,13,18,13,18C13,18,13,18,13,18ZM2,17C2,17,2,5,2,5C2,5,0,5,0,5C0,5,0,17,0,17C0,17,2,17,2,17C2,17,2,17,2,17ZM3,4C3,4,5,4,5,4C5,4,5,2,5,2C5,2,3,2,3,2C3,2,3,4,3,4C3,4,3,4,3,4ZM11,4C11,4,13,4,13,4C13,4,13,2,13,2C13,2,11,2,11,2C11,2,11,4,11,4C11,4,11,4,11,4ZM3,18C2.44772,18,2,17.5523,2,17C2,17,0,17,0,17C0,18.6569,1.34315,20,3,20C3,20,3,18,3,18C3,18,3,18,3,18ZM14,17C14,17.5523,13.5523,18,13,18C13,18,13,20,13,20C14.6569,20,16,18.6569,16,17C16,17,14,17,14,17C14,17,14,17,14,17ZM16,5C16,3.34315,14.6569,2,13,2C13,2,13,4,13,4C13.5523,4,14,4.44772,14,5C14,5,16,5,16,5C16,5,16,5,16,5ZM2,5C2,4.44772,2.44772,4,3,4C3,4,3,2,3,2C1.34315,2,0,3.34315,0,5C0,5,2,5,2,5C2,5,2,5,2,5ZM4.29289,12.7071C4.29289,12.7071,6.29289,14.7071,6.29289,14.7071C6.29289,14.7071,7.70711,13.2929,7.70711,13.2929C7.70711,13.2929,5.70711,11.2929,5.70711,11.2929C5.70711,11.2929,4.29289,12.7071,4.29289,12.7071C4.29289,12.7071,4.29289,12.7071,4.29289,12.7071ZM7.70711,14.7071C7.70711,14.7071,11.7071,10.7071,11.7071,10.7071C11.7071,10.7071,10.2929,9.29289,10.2929,9.29289C10.2929,9.29289,6.29289,13.2929,6.29289,13.2929C6.29289,13.2929,7.70711,14.7071,7.70711,14.7071C7.70711,14.7071,7.70711,14.7071,7.70711,14.7071ZM7,2C7,2,9,2,9,2C9,2,9,0,9,0C9,0,7,0,7,0C7,0,7,2,7,2C7,2,7,2,7,2ZM9,4C9,4,7,4,7,4C7,4,7,6,7,6C7,6,9,6,9,6C9,6,9,4,9,4C9,4,9,4,9,4ZM7,4C6.44772,4,6,3.55228,6,3C6,3,4,3,4,3C4,4.65685,5.34315,6,7,6C7,6,7,4,7,4C7,4,7,4,7,4ZM10,3C10,3.55228,9.55228,4,9,4C9,4,9,6,9,6C10.6568,6,12,4.65685,12,3C12,3,10,3,10,3C10,3,10,3,10,3ZM9,2C9.55228,2,10,2.44772,10,3C10,3,12,3,12,3C12,1.34315,10.6568,0,9,0C9,0,9,2,9,2C9,2,9,2,9,2ZM7,0C5.34315,0,4,1.34315,4,3C4,3,6,3,6,3C6,2.44772,6.44772,2,7,2C7,2,7,0,7,0C7,0,7,0,7,0Z" fill="#C1CBD8" fill-opacity="1"/></g></svg>